<?xml version="1.0" standalone="no"?>
<!DOCTYPE svg PUBLIC "-//W3C//DTD SVG 20010904//EN"
 "http://www.w3.org/TR/2001/REC-SVG-20010904/DTD/svg10.dtd">
<svg version="1.0" xmlns="http://www.w3.org/2000/svg"
 width="35.000000pt" height="42.000000pt" viewBox="0 0 35.000000 42.000000"
 preserveAspectRatio="xMidYMid meet">

<g transform="translate(0.000000,42.000000) scale(0.100000,-0.100000)"
fill="#000000" stroke="none">
<path d="M165 360 c-24 -47 -27 -49 -62 -47 -27 1 -38 -2 -41 -14 -2 -11 6
-18 27 -22 l30 -6 -17 -41 c-17 -42 -24 -44 -77 -24 -13 5 -16 2 -13 -17 2
-16 11 -25 26 -27 27 -4 27 -12 2 -62 -25 -49 -25 -56 -1 -63 16 -4 24 5 43
50 20 49 24 54 48 48 14 -4 27 -8 29 -11 2 -2 -6 -26 -18 -53 -26 -61 -26 -61
-1 -61 14 0 27 14 42 48 13 26 23 48 24 50 1 2 19 -1 39 -7 34 -9 36 -8 33 12
-2 14 -11 23 -25 25 -27 4 -28 13 -7 53 13 27 20 30 52 27 28 -2 37 1 40 14 2
12 -5 19 -22 24 -31 8 -32 13 -5 66 17 33 18 42 7 49 -22 14 -27 11 -53 -41
-25 -50 -37 -58 -65 -40 -12 8 -11 16 8 56 19 37 21 49 10 55 -22 14 -27 11
-53 -41z m38 -116 c13 -5 13 -10 -1 -45 -14 -36 -18 -40 -41 -34 -36 9 -37 11
-18 50 16 34 30 41 60 29z"/>
</g>
</svg>
