<?xml version="1.0" standalone="no"?>
<!DOCTYPE svg PUBLIC "-//W3C//DTD SVG 20010904//EN"
 "http://www.w3.org/TR/2001/REC-SVG-20010904/DTD/svg10.dtd">
<svg version="1.0" xmlns="http://www.w3.org/2000/svg"
 width="53.000000pt" height="36.000000pt" viewBox="0 0 53.000000 36.000000"
 preserveAspectRatio="xMidYMid meet">

<g transform="translate(0.000000,36.000000) scale(0.100000,-0.100000)"
fill="#000000" stroke="none">
<path d="M234 268 c3 -40 8 -112 12 -160 4 -69 9 -88 21 -88 13 0 14 19 8 143
-7 161 -10 177 -32 177 -12 0 -14 -12 -9 -72z"/>
<path d="M330 291 c0 -32 12 -37 73 -33 l62 4 -44 -46 c-37 -37 -43 -49 -35
-66 8 -19 14 -16 71 42 50 50 61 68 57 86 -6 21 -11 22 -95 22 -49 0 -89 -4
-89 -9z"/>
<path d="M67 146 c-76 -87 -72 -96 45 -96 78 0 89 2 84 16 -3 9 -6 18 -6 20 0
2 -28 4 -62 4 l-63 1 43 39 c34 30 42 44 37 60 -3 11 -10 20 -14 20 -4 0 -33
-29 -64 -64z"/>
</g>
</svg>
