<?xml version="1.0" standalone="no"?>
<!DOCTYPE svg PUBLIC "-//W3C//DTD SVG 20010904//EN"
 "http://www.w3.org/TR/2001/REC-SVG-20010904/DTD/svg10.dtd">
<svg version="1.0" xmlns="http://www.w3.org/2000/svg"
 width="83.000000pt" height="39.000000pt" viewBox="0 0 83.000000 39.000000"
 preserveAspectRatio="xMidYMid meet">

<g transform="translate(0.000000,39.000000) scale(0.100000,-0.100000)"
fill="#000000" stroke="none">
<path d="M350 335 l-13 -46 -22 21 c-27 26 -65 26 -94 -1 -63 -59 -50 -169 20
-169 17 0 37 -7 45 -15 9 -8 19 -15 23 -15 5 0 29 57 55 127 36 98 44 128 34
135 -25 15 -36 7 -48 -37z m-40 -60 c10 -12 9 -24 -5 -60 -13 -36 -21 -45 -40
-45 -33 0 -48 30 -34 67 20 54 53 69 79 38z"/>
<path d="M67 353 c-70 -6 -71 -24 -1 -94 54 -55 59 -58 66 -38 7 17 0 28 -34
60 l-43 38 56 1 c53 0 69 9 69 36 0 4 -28 3 -113 -3z"/>
<path d="M450 311 c0 -22 21 -33 40 -21 18 11 4 40 -20 40 -13 0 -20 -7 -20
-19z"/>
<path d="M421 238 c-4 -13 -18 -52 -31 -86 -19 -54 -21 -65 -9 -73 8 -5 17 -9
21 -9 10 0 69 162 64 177 -8 21 -36 15 -45 -9z"/>
<path d="M502 139 c3 -96 5 -104 23 -107 15 -2 35 15 73 63 64 79 69 91 43 98
-15 4 -28 -8 -56 -49 -21 -30 -40 -54 -43 -54 -3 0 -2 32 2 70 3 41 2 70 -3
70 -5 0 -17 3 -26 6 -14 6 -15 -5 -13 -97z"/>
<path d="M694 145 c-5 -12 6 -28 37 -56 l44 -38 -56 -1 c-43 0 -58 -4 -63 -16
-4 -9 -5 -19 -2 -21 2 -2 38 -1 79 3 54 5 78 11 82 22 6 16 -37 67 -88 104
-25 18 -28 18 -33 3z"/>
</g>
</svg>
